<svg width="647" height="100" viewBox="0 0 647 100" fill="none" xmlns="http://www.w3.org/2000/svg">
<path d="M174.508 92.3565C168.29 92.3565 162.641 91.2949 157.56 89.1717C152.556 87.0485 148.233 84.1292 144.594 80.4136C141.03 76.6222 138.262 72.1484 136.291 66.9921C134.319 61.76 133.333 56.1108 133.333 50.0446C133.333 43.9784 134.319 38.3672 136.291 33.2109C138.338 27.9788 141.144 23.467 144.707 19.6756C148.347 15.8843 152.669 12.927 157.674 10.8038C162.754 8.68064 168.366 7.61905 174.508 7.61905C178.982 7.61905 183.152 8.18776 187.019 9.32517C190.886 10.3868 194.299 11.9412 197.256 13.9886C201.502 16.87 204.801 20.5098 207.151 24.9078C209.578 29.2299 211.057 34.0071 211.587 39.2392H187.815C187.664 37.6468 187.209 36.1303 186.451 34.6895C185.768 33.2488 184.82 31.9597 183.607 30.8223C182.47 29.6849 181.067 28.8129 179.399 28.2063C177.806 27.5238 176.062 27.1826 174.166 27.1826C171.361 27.1826 168.896 27.7513 166.773 28.8887C164.726 30.0261 162.982 31.6185 161.541 33.6659C160.176 35.6374 159.153 38.0259 158.47 40.8316C157.788 43.6372 157.446 46.7082 157.446 50.0446C157.446 53.381 157.826 56.4521 158.584 59.2577C159.342 62.0633 160.442 64.4898 161.882 66.5372C163.399 68.5087 165.181 70.0631 167.228 71.2006C169.351 72.338 171.74 72.9067 174.394 72.9067C178.564 72.9067 181.863 71.6934 184.289 69.2669C186.716 66.8405 188.119 63.8074 188.498 60.1676H212.497C212.118 64.7173 210.981 68.9257 209.085 72.7929C207.189 76.5843 204.801 79.8828 201.919 82.6884C198.431 86.1007 194.45 88.5651 189.977 90.0816C185.579 91.5982 180.422 92.3565 174.508 92.3565Z" fill="#2FD05B"/>
<path d="M238.743 39.0117H239.084C241.283 36.5094 243.748 34.5 246.478 32.9834C249.207 31.391 252.62 30.5948 256.714 30.5948C263.463 30.5948 268.543 32.6422 271.956 36.7369C275.368 40.8316 277.074 46.2153 277.074 52.8882V90.4229H255.577V58.1203C255.577 55.0872 254.932 52.6607 253.643 50.8408C252.354 49.021 250.307 48.111 247.501 48.111C244.771 48.111 242.61 49.1726 241.018 51.2958C239.501 53.3431 238.743 55.9592 238.743 59.144V90.4229H217.246V9.09769H238.743V39.0117Z" fill="#2FD05B"/>
<path d="M304.809 41.1728H305.15C307.501 37.5331 310.079 34.9549 312.885 33.4384C315.766 31.9218 319.065 31.1635 322.78 31.1635C324.373 31.1635 325.548 31.3531 326.306 31.7322V50.0446H325.851C319.482 48.983 314.553 49.8551 311.065 52.6607C307.577 55.3905 305.833 60.0539 305.833 66.6509V90.4229H284.336V32.4147H304.809V41.1728Z" fill="#2FD05B"/>
<path d="M360.335 92.2427C355.483 92.2427 351.085 91.4845 347.141 89.9679C343.274 88.3755 339.938 86.2144 337.132 83.4846C334.402 80.7548 332.279 77.5322 330.763 73.8166C329.246 70.0252 328.488 65.9305 328.488 61.5325C328.488 57.1345 329.246 53.0777 330.763 49.3622C332.279 45.5708 334.402 42.3102 337.132 39.5804C339.938 36.7748 343.274 34.6137 347.141 33.0971C351.085 31.5048 355.483 30.7086 360.335 30.7086C365.188 30.7086 369.549 31.5048 373.416 33.0971C377.359 34.6137 380.695 36.7748 383.425 39.5804C386.155 42.3102 388.24 45.5708 389.681 49.3622C391.197 53.0777 391.956 57.1345 391.956 61.5325C391.956 65.9305 391.197 70.0252 389.681 73.8166C388.24 77.5322 386.155 80.7548 383.425 83.4846C380.695 86.2144 377.359 88.3755 373.416 89.9679C369.549 91.4845 365.188 92.2427 360.335 92.2427ZM360.108 77.9113C363.444 77.9113 365.947 76.4327 367.615 73.4754C369.283 70.4423 370.117 66.4613 370.117 61.5325C370.117 56.6037 369.283 52.6607 367.615 49.7034C365.947 46.6703 363.444 45.1537 360.108 45.1537C356.772 45.1537 354.307 46.6703 352.715 49.7034C351.122 52.6607 350.326 56.6037 350.326 61.5325C350.326 66.4613 351.122 70.4423 352.715 73.4754C354.307 76.4327 356.772 77.9113 360.108 77.9113Z" fill="#2FD05B"/>
<path d="M417.773 40.3766H418.114C420.465 37.1918 423.119 34.7654 426.076 33.0971C429.109 31.4289 432.673 30.5948 436.768 30.5948C443.517 30.5948 448.597 32.6422 452.009 36.7369C455.422 40.8316 457.128 46.2153 457.128 52.8882V90.4229H435.631V58.1203C435.631 55.0872 434.986 52.6607 433.697 50.8408C432.408 49.021 430.361 48.111 427.555 48.111C424.825 48.111 422.664 49.1726 421.072 51.2958C419.555 53.3431 418.797 55.9592 418.797 59.144V90.4229H397.3V32.4147H417.773V40.3766Z" fill="#2FD05B"/>
<path d="M464.389 32.4147H485.887V90.4229H464.389V32.4147ZM464.389 9.09769H485.887V25.3627H464.389V9.09769Z" fill="#2FD05B"/>
<path d="M523.061 92.2427C518.284 92.2427 513.924 91.4845 509.981 89.9679C506.114 88.3755 502.777 86.2144 499.972 83.4846C497.166 80.7548 495.005 77.5322 493.489 73.8166C491.972 70.0252 491.214 65.9305 491.214 61.5325C491.214 57.1345 491.972 53.0777 493.489 49.3622C495.005 45.5708 497.166 42.3102 499.972 39.5804C502.777 36.7748 506.114 34.6137 509.981 33.0971C513.924 31.5048 518.284 30.7086 523.061 30.7086C527.156 30.7086 530.872 31.2773 534.208 32.4147C537.62 33.5521 540.54 35.1445 542.966 37.1918C545.468 39.2392 547.478 41.7036 548.994 44.585C550.511 47.3907 551.459 50.4996 551.838 53.9118H531.137C530.53 51.2579 529.583 49.2484 528.293 47.8835C527.004 46.4428 525.185 45.7225 522.834 45.7225C519.497 45.7225 517.033 47.1253 515.441 49.9309C513.848 52.7365 513.052 56.6037 513.052 61.5325C513.052 66.3855 513.886 70.2148 515.554 73.0204C517.223 75.7502 519.725 77.1151 523.061 77.1151C525.715 77.1151 527.687 76.281 528.976 74.6128C530.341 72.8688 531.175 70.3285 531.478 66.9921H552.179C552.179 70.556 551.459 73.8924 550.018 77.0014C548.653 80.0345 546.682 82.6884 544.104 84.9633C541.601 87.2381 538.53 89.0201 534.89 90.3091C531.327 91.5982 527.384 92.2427 523.061 92.2427Z" fill="#2FD05B"/>
<path d="M557.138 9.09769H579.203V90.4229H557.138V9.09769Z" fill="#2FD05B"/>
<path d="M616.251 92.0152C611.474 92.0152 607.152 91.257 603.285 89.7404C599.417 88.2239 596.081 86.1007 593.275 83.3709C590.47 80.6411 588.309 77.4184 586.792 73.7029C585.276 69.9115 584.517 65.7789 584.517 61.305C584.517 56.907 585.276 52.8503 586.792 49.1347C588.309 45.3433 590.432 42.0827 593.162 39.3529C595.891 36.5473 599.152 34.3862 602.943 32.8697C606.735 31.2773 610.905 30.4811 615.455 30.4811C620.005 30.4811 624.023 31.2015 627.512 32.6422C631.075 34.0071 634.184 35.9028 636.838 38.3293C640.402 41.5898 643.018 45.6845 644.687 50.6133C646.355 55.5421 647.113 60.888 646.961 66.6509H605.56C606.166 70.0631 607.379 72.7171 609.199 74.6128C611.095 76.5085 613.673 77.4563 616.934 77.4563C620.725 77.4563 623.417 76.0156 625.009 73.1342H645.824C645.217 75.7881 643.928 78.3284 641.957 80.7548C640.061 83.1813 637.672 85.3045 634.791 87.1244C632.137 88.8684 629.294 90.1196 626.26 90.8778C623.303 91.6361 619.967 92.0152 616.251 92.0152ZM615.91 44.9263C612.953 44.9263 610.64 45.8741 608.972 47.7698C607.304 49.5897 606.166 52.092 605.56 55.2767H625.578C625.123 52.0162 624.023 49.4759 622.279 47.6561C620.611 45.8362 618.488 44.9263 615.91 44.9263Z" fill="#2FD05B"/>
<path d="M28.5714 0L0 28.5714V71.4286H28.5714V100H71.4286L100 71.4286V35.7143H71.4286V71.4286H28.5714V28.5714H64.2857V0H28.5714Z" fill="#2FD05B"/>
</svg>
